<svg width="32" height="32" viewBox="0 0 32 32" fill="none" xmlns="http://www.w3.org/2000/svg">
<path d="M28.5533 20.4547C24.7892 23.1325 19.852 23.4299 15.8354 21.3332M3.44528 11.545C7.21854 8.86072 12.1706 8.56834 16.1924 10.6818M20.4976 18.8323C24.3465 16.4065 26.5752 11.9653 26.134 7.34947M11.4418 13.2048C7.6291 15.6386 5.42547 20.058 5.86438 24.6502M20.7019 13.5159C20.5246 8.97119 17.7926 4.8223 13.5755 2.89613M11.3002 18.5674C11.5075 23.0793 14.2317 27.1892 18.423 29.1035M25.4274 6.57175C30.6344 11.7787 30.6344 20.2209 25.4274 25.4279C20.2204 30.6349 11.7782 30.6349 6.57126 25.4279C1.36427 20.2209 1.36427 11.7787 6.57126 6.57175C11.7783 1.36476 20.2204 1.36476 25.4274 6.57175ZM19.7706 12.2286C21.8534 14.3114 21.8534 17.6883 19.7706 19.7711C17.6878 21.8539 14.3109 21.8539 12.2281 19.7711C10.1453 17.6883 10.1453 14.3114 12.2281 12.2286C14.3109 10.1458 17.6878 10.1458 19.7706 12.2286Z" stroke="#AA70F5" stroke-width="2" stroke-linecap="round" stroke-linejoin="round"/>
</svg>
