<svg width="32" height="32" viewBox="0 0 32 32" fill="none" xmlns="http://www.w3.org/2000/svg">
<path d="M28.5543 20.4547C24.7902 23.1325 19.853 23.4299 15.8364 21.3332M3.44625 11.545C7.21952 8.86072 12.1716 8.56834 16.1934 10.6818M20.4986 18.8323C24.3475 16.4065 26.5761 11.9653 26.135 7.34947M11.4428 13.2048C7.63008 15.6386 5.42645 20.058 5.86536 24.6502M20.7029 13.5159C20.5255 8.97119 17.7936 4.8223 13.5765 2.89613M11.3012 18.5674C11.5085 23.0793 14.2327 27.1892 18.424 29.1035M25.4284 6.57175C30.6354 11.7787 30.6354 20.2209 25.4284 25.4279C20.2214 30.6349 11.7792 30.6349 6.57224 25.4279C1.36524 20.2209 1.36524 11.7787 6.57224 6.57175C11.7792 1.36476 20.2214 1.36476 25.4284 6.57175ZM19.7716 12.2286C21.8544 14.3114 21.8544 17.6883 19.7716 19.7711C17.6888 21.8539 14.3119 21.8539 12.2291 19.7711C10.1463 17.6883 10.1463 14.3114 12.2291 12.2286C14.3119 10.1458 17.6888 10.1458 19.7716 12.2286Z" stroke="#440A8F" stroke-width="2" stroke-linecap="round" stroke-linejoin="round"/>
</svg>
